<svg width="46" height="45" viewBox="0 0 46 45" fill="none" xmlns="http://www.w3.org/2000/svg">
<g clip-path="url(#clip0_172_8395)">
<rect width="45" height="44" transform="matrix(-1 0 0 1 45.7417 0.464844)" fill="#DFF4F4"/>
<path d="M45.7417 42.7048C45.7417 43.6783 44.9373 44.4648 43.9417 44.4648H2.5417C1.54607 44.4648 0.741699 43.6783 0.741699 42.7048V19.6048H45.7417V42.7048ZM2.5417 4.42484H11.9917V0.904844C11.9917 0.662844 12.1942 0.464844 12.4417 0.464844H15.5917C15.8392 0.464844 16.0417 0.662844 16.0417 0.904844V4.42484H30.4417V0.904844C30.4417 0.662844 30.6442 0.464844 30.8917 0.464844H34.0417C34.2892 0.464844 34.4917 0.662844 34.4917 0.904844V4.42484H43.9417C44.9373 4.42484 45.7417 5.21134 45.7417 6.18484V15.8648H0.741699V6.18484C0.741699 5.21134 1.54607 4.42484 2.5417 4.42484Z" fill="#135868"/>
</g>
<defs>
<clipPath id="clip0_172_8395">
<rect width="45" height="44" fill="white" transform="matrix(-1 0 0 1 45.7417 0.464844)"/>
</clipPath>
</defs>
</svg>
