<svg width="51" height="51" viewBox="0 0 51 51" fill="none" xmlns="http://www.w3.org/2000/svg">
<path d="M11.7004 15.7315L5.45044 16.7731C7.14836 8.94605 12.0796 6.36376 16.9088 6.35646C20.0306 6.35126 23.1088 7.42521 25.2421 8.4398C27.3754 7.42521 30.4504 6.35646 33.5754 6.35646C38.3786 6.35646 43.3359 8.94605 45.0338 16.7731L38.7838 15.7315C39.3661 17.919 40.6463 21.7648 38.7838 25.1065C35.6796 22.3221 28.5025 18.1179 25.2421 15.7315C21.9817 18.1179 14.8046 22.3221 11.7004 25.1065C9.83794 21.7658 11.1181 17.919 11.7004 15.7315Z" fill="#135868" stroke="#135868" stroke-width="2" stroke-linecap="round" stroke-linejoin="round"/>
<path d="M25.2422 15.7324C24.4557 19.7835 23.3557 29.8293 25.2422 37.6074" stroke="#135868" stroke-width="2" stroke-linecap="round" stroke-linejoin="round"/>
<path d="M12.7422 43.8574H37.7422C32.7557 39.0814 30.4505 37.6126 25.2422 37.6074C20.0339 37.6022 14.713 41.1303 12.7422 43.8574Z" fill="#135868" stroke="#135868" stroke-width="2" stroke-linecap="round" stroke-linejoin="round"/>
</svg>
